<?xml version="1.0" encoding="utf-8"?>
<!-- Generator: Adobe Illustrator 19.0.0, SVG Export Plug-In . SVG Version: 6.00 Build 0)  -->
<svg version="1.1" id="Layer_1" xmlns="http://www.w3.org/2000/svg" xmlns:xlink="http://www.w3.org/1999/xlink" x="0px" y="0px"
	 viewBox="-273 365 64 64" style="enable-background:new -273 365 64 64;" xml:space="preserve">
<style type="text/css">
	.st0{fill:#0C4EAD;}
	.st1{fill:#C1C1C1;}
	.st2{fill:#E5E5E5;}
	.st3{fill:#FFFFFF;}
	.st4{fill:#F44E57;}
	.st5{fill:#E2E2E2;}
	.st6{fill:#CC404E;}
</style>
<g>
	<path class="st0" d="M-241,365c17.7,0,32,14.3,32,32s-14.3,32-32,32s-32-14.3-32-32S-258.7,365-241,365z"/>
	<path class="st1" d="M-225,418.1h-32c-2.8,0-5-2.2-5-5v-25h42v25C-220,415.9-222.3,418.1-225,418.1z"/>
	<path class="st2" d="M-225,417.1h-32c-2.8,0-5-2.2-5-5v-25h42v25C-220,414.9-222.3,417.1-225,417.1z"/>
	<path class="st3" d="M-225,416.1h-32c-2.8,0-5-2.2-5-5v-25h42v25C-220,413.9-222.3,416.1-225,416.1z"/>
	<path class="st4" d="M-220,389.1h-42v-8c0-2.7,2.2-5,5-5h32c2.8,0,5,2.2,5,5V389.1z"/>
	<rect x="-258" y="394.1" class="st5" width="6.2" height="6"/>
	<rect x="-248.7" y="394.1" class="st5" width="6.2" height="6"/>
	<rect x="-239.5" y="394.1" class="st5" width="6.2" height="6"/>
	<rect x="-230.2" y="394.1" class="st5" width="6.2" height="6"/>
	<rect x="-258" y="404.1" class="st5" width="6.2" height="6"/>
	<rect x="-248.7" y="404.1" class="st5" width="6.2" height="6"/>
	<rect x="-239.5" y="404.1" class="st5" width="6.2" height="6"/>
	<rect x="-230.2" y="404.1" class="st4" width="6.2" height="6"/>
	<circle class="st6" cx="-251.5" cy="379.6" r="3.5"/>
	<circle class="st6" cx="-230.5" cy="379.6" r="3.5"/>
	<path class="st5" d="M-251.6,381.7L-251.6,381.7c-1.3,0-2.4-1.1-2.4-2.4v-4.7c0-1.3,1.1-2.4,2.4-2.4l0,0c1.3,0,2.4,1.1,2.4,2.4v4.7
		C-249.1,380.6-250.2,381.7-251.6,381.7z"/>
	<path class="st5" d="M-230.4,381.6L-230.4,381.6c-1.3,0-2.4-1.1-2.4-2.4v-4.8c0-1.3,1.1-2.4,2.4-2.4l0,0c1.3,0,2.4,1.1,2.4,2.4v4.7
		C-228,380.5-229.1,381.6-230.4,381.6z"/>
</g>
</svg>
