<?xml version="1.0" encoding="utf-8"?>
<!-- Generator: Adobe Illustrator 19.0.0, SVG Export Plug-In . SVG Version: 6.00 Build 0)  -->
<svg version="1.1" id="Layer_1" xmlns="http://www.w3.org/2000/svg" xmlns:xlink="http://www.w3.org/1999/xlink" x="0px" y="0px"
	 viewBox="-273 365 64 64" style="enable-background:new -273 365 64 64;" xml:space="preserve">
<style type="text/css">
	.st0{fill:#0C4EAD;}
	.st1{fill:#D3D5DD;}
	.st2{fill:#FFFFFF;}
</style>
<g>
	<g>
		<g>
			<path class="st0" d="M-243.1,365.1c19.3-1.2,35.2,14.7,34,34c-1,15.9-13.9,28.8-29.8,29.8c-19.3,1.2-35.2-14.7-34-34
				C-271.9,379-259,366.1-243.1,365.1z"/>
		</g>
	</g>
	<g>
		<g>
			<path class="st1" d="M-227.7,417.5v1.2c0,1.3-1,2.3-2.3,2.3h-27.3c-1,0-1.7-0.8-1.7-1.8v-42.1c0-1,0.8-1.8,1.7-1.8h1.7
				L-227.7,417.5z"/>
		</g>
	</g>
	<g>
		<g>
			<path class="st2" d="M-223,382.1v33.7c0,0.9-0.8,1.7-1.7,1.7h-3h-26.1c-0.9,0-1.6-0.6-1.7-1.7v-40.5v-0.6c0-0.9,0.8-1.7,1.7-1.7
				h21.8L-223,382.1z"/>
		</g>
	</g>
	<g>
		<g>
			<polygon class="st1" points="-231.1,373.9 -223,382.1 -232,382.1 -232,373 			"/>
		</g>
	</g>
	<g>
		<g>
			<path class="st1" d="M-228.1,388c0.6,0,1.1,0.4,1.1,1c0,0.5-0.5,1-1.1,1h-21.8c-0.6,0-1.1-0.5-1.1-1c0-0.6,0.5-1,1.1-1H-228.1z"
				/>
		</g>
	</g>
	<g>
		<g>
			<path class="st1" d="M-228.4,393c0.6,0,1.1,0.5,1.1,1s-0.5,1-1.1,1h-21.7c-0.6,0-1.1-0.5-1.1-1s0.5-1,1.1-1H-228.4z"/>
		</g>
	</g>
	<g>
		<g>
			<path class="st1" d="M-228.4,398c0.6,0,1.1,0.5,1.1,1s-0.5,1-1.1,1h-21.7c-0.6,0-1.1-0.5-1.1-1s0.5-1,1.1-1H-228.4z"/>
		</g>
	</g>
	<g>
		<g>
			<path class="st1" d="M-228.4,403c0.6,0,1.1,0.5,1.1,1s-0.5,1-1.1,1h-21.7c-0.6,0-1.1-0.5-1.1-1s0.5-1,1.1-1H-228.4z"/>
		</g>
	</g>
	<g>
		<g>
			<path class="st1" d="M-238.1,380c0.6,0,1.1,0.4,1.1,1c0,0.5-0.5,1-1.1,1h-11.8c-0.6,0-1.1-0.5-1.1-1c0-0.6,0.5-1,1.1-1H-238.1z"
				/>
		</g>
	</g>
</g>
</svg>
