<?xml version="1.0" encoding="utf-8"?>
<!-- Generator: Adobe Illustrator 19.0.0, SVG Export Plug-In . SVG Version: 6.00 Build 0)  -->
<svg version="1.1" xmlns="http://www.w3.org/2000/svg" xmlns:xlink="http://www.w3.org/1999/xlink" x="0px" y="0px"
	 viewBox="0 0 2097 792" style="enable-background:new 0 0 2097 792;" xml:space="preserve">
<style type="text/css">
	.st0{display:none;}
	.st1{display:inline;fill:none;stroke:#010101;stroke-width:10;stroke-linecap:round;stroke-linejoin:round;}
	.st2{clip-path:url(#SVGID_2_);fill:#1C4A8C;}
	.st3{clip-path:url(#SVGID_2_);fill:#40AFE4;}
	.st4{clip-path:url(#SVGID_2_);}
	.st5{fill:#FFFFFF;}
	.st6{fill:#1C4A8C;}
	.st7{display:inline;fill:#ED1C24;}
</style>
<g id="Base" class="st0">
	<polygon class="st1" points="307.9,136.2 529.4,274.2 529.4,535.9 307.9,655.8 87.5,535.9 87.5,274.2 	"/>
	<polygon class="st1" points="87.5,535.9 307.9,136.2 529.4,535.9 	"/>
	<polygon class="st1" points="87.5,274.2 529.4,274.2 307.9,655.8 	"/>
	<line class="st1" x1="87.5" y1="274.2" x2="529.4" y2="535.9"/>
	<line class="st1" x1="87.5" y1="535.9" x2="529.4" y2="274.2"/>
	<line class="st1" x1="307.9" y1="136.2" x2="307.9" y2="655.8"/>
</g>
<g id="Inside">
</g>
<g id="Lines">
</g>
<g id="Mask">
	<g>
		<defs>
			<path id="SVGID_1_" d="M529.4,307.9c-18.6,0-33.7-15.1-33.7-33.7c0-6.6,1.9-12.7,5.1-17.9L330.7,150.4
				c-4.7,7.6-13.2,12.7-22.8,12.7c-9.6,0-18-5-22.8-12.6L116.1,256.3c3.3,5.2,5.1,11.3,5.1,17.9c0,18.6-15.1,33.7-33.7,33.7l0,201.1
				c14.8,0,26.9,12,26.9,26.9c0,4.7-1.2,9-3.3,12.8l167.2,91c5.7-10.5,16.8-17.6,29.6-17.6c12.8,0,23.9,7.1,29.7,17.6l168.2-91.1
				c-2.1-3.8-3.2-8.2-3.2-12.8c0-14.8,12-26.9,26.9-26.9L529.4,307.9C529.4,307.9,529.4,307.9,529.4,307.9z"/>
		</defs>
		<clipPath id="SVGID_2_">
			<use xlink:href="#SVGID_1_"  style="overflow:visible;"/>
		</clipPath>
		<polygon class="st2" points="307.9,136.2 87.5,535.9 308.5,405 529.4,535.9 		"/>
		<polygon class="st3" points="87.5,535.9 308.5,405 529.4,535.9 307.9,655.8 		"/>
		<polygon class="st3" points="87.5,274.2 87.5,535.9 307.9,136.2 		"/>
		<polygon class="st3" points="307.9,136.2 529.4,535.9 529.4,274.2 		"/>
		<g class="st4">
			<path class="st5" d="M307.9,660.8C307.9,660.8,307.9,660.8,307.9,660.8c-1.8,0-3.4-1-4.3-2.5L83.2,276.7c-0.9-1.5-0.9-3.5,0-5
				c0.9-1.5,2.5-2.5,4.3-2.5h441.9c1.8,0,3.4,1,4.3,2.5s0.9,3.5,0,5L312.2,658.3C311.3,659.9,309.7,660.8,307.9,660.8z M96.2,279.2
				l211.8,366.7l212.8-366.7H96.2z"/>
		</g>
		<g class="st4">
			<path class="st5" d="M529.4,540.9l-442,0c-1.8,0-3.4-0.9-4.3-2.5s-0.9-3.4-0.1-5l220.4-399.6c0.9-1.6,2.6-2.6,4.4-2.6
				c0,0,0,0,0,0c1.8,0,3.5,1,4.4,2.6l221.5,399.6c0.9,1.5,0.8,3.4-0.1,5C532.8,539.9,531.2,540.9,529.4,540.9z M95.9,530.9l425,0
				l-213-384.3L95.9,530.9z"/>
		</g>
		<g class="st4">
			
				<rect x="303.5" y="148.2" transform="matrix(0.5094 0.8605 -0.8605 0.5094 499.8268 -66.7414)" class="st5" width="10" height="513.6"/>
		</g>
		<g class="st4">
			
				<rect x="51.7" y="400" transform="matrix(0.8605 0.5095 -0.5095 0.8605 249.4083 -100.6512)" class="st5" width="513.6" height="10"/>
		</g>
	</g>
	<g>
		<path class="st6" d="M679.5,459.7V302.6h48.3c10.6,0,20.3,1.8,29.1,5.4c8.8,3.6,16.4,8.7,22.7,15.3c6.3,6.6,11.2,14.5,14.7,23.7
			c3.5,9.2,5.3,19.4,5.3,30.6v7.1c0,11.2-1.7,21.4-5.2,30.6c-3.5,9.2-8.4,17-14.8,23.6c-6.4,6.6-14,11.7-22.8,15.3
			c-8.8,3.6-18.6,5.4-29.2,5.4H679.5z M711.9,328.8v104.9h15.6c12.8,0,22.6-4.2,29.2-12.7c6.7-8.5,10-20.5,10-36.2v-7.3
			c0-16-3.3-28.1-9.9-36.3c-6.6-8.2-16.3-12.4-29-12.4H711.9z"/>
		<path class="st6" d="M881.3,402.2h-25.8v57.5h-32.4V302.6h58.4c9.1,0,17.2,1,24.4,3.1c7.2,2.1,13.3,5.1,18.2,9.1
			c5,4,8.8,8.9,11.4,14.8c2.7,5.9,4,12.7,4,20.5c0,5.8-0.6,10.9-1.9,15.5c-1.3,4.6-3.2,8.6-5.6,12.2c-2.4,3.6-5.4,6.7-8.8,9.3
			c-3.5,2.7-7.3,5-11.7,6.9l34,64.2v1.5h-34.7L881.3,402.2z M855.5,375.9h26.1c4.2,0,8-0.6,11.2-1.7c3.2-1.1,5.9-2.7,8-4.7
			c2.1-2,3.7-4.5,4.8-7.3c1.1-2.8,1.6-6,1.6-9.5c0-7.4-2.1-13.2-6.3-17.5c-4.2-4.2-10.7-6.4-19.4-6.4h-26V375.9z"/>
		<path class="st6" d="M1058.7,391.6h-62.2v42.1h72.9v26H964.2V302.6h105.1v26.2h-72.7v37.4h62.2V391.6z"/>
		<path class="st6" d="M1177.2,427.3h-56.8l-10.8,32.4h-34.4l58.5-157.1h30l58.8,157.1h-34.4L1177.2,427.3z M1129.2,401.1h39.3
			l-19.7-58.8L1129.2,401.1z"/>
		<path class="st6" d="M1279.5,302.6l40.4,114l40.1-114h42.5v157.1H1370v-42.9l3.2-74.1l-42.4,117.1h-22.2l-42.3-117l3.2,74v42.9
			h-32.4V302.6H1279.5z"/>
		<path class="st6" d="M1512.3,418.5c0-2.7-0.4-5.2-1.2-7.4c-0.8-2.2-2.3-4.2-4.6-6.1c-2.3-1.9-5.4-3.7-9.4-5.5
			c-4-1.8-9.2-3.7-15.5-5.7c-7.2-2.3-14-4.9-20.3-7.8c-6.4-2.9-11.9-6.3-16.7-10.2c-4.8-3.9-8.6-8.4-11.3-13.5
			c-2.8-5.1-4.2-11.1-4.2-17.9c0-6.5,1.4-12.5,4.3-18c2.8-5.4,6.8-10.1,12-13.9c5.1-3.8,11.3-6.8,18.3-8.9
			c7.1-2.1,14.9-3.2,23.4-3.2c8.7,0,16.6,1.2,23.7,3.6c7.1,2.4,13.2,5.8,18.2,10.1c5,4.3,8.9,9.4,11.7,15.4
			c2.7,5.9,4.1,12.4,4.1,19.5h-32.4c0-3.3-0.5-6.4-1.6-9.2c-1-2.8-2.6-5.2-4.8-7.2c-2.2-2-4.9-3.6-8.1-4.7
			c-3.2-1.1-7.1-1.7-11.4-1.7c-4.2,0-7.9,0.5-11.1,1.4c-3.1,0.9-5.7,2.2-7.8,3.9c-2.1,1.7-3.6,3.6-4.6,5.8c-1,2.2-1.6,4.6-1.6,7.1
			c0,5.2,2.6,9.5,7.9,13c5.3,3.5,13,6.7,23.3,9.8c8.6,2.7,16.1,5.6,22.6,8.8c6.5,3.2,11.9,6.9,16.3,11c4.4,4.1,7.6,8.7,9.9,13.8
			c2.2,5.1,3.3,10.9,3.3,17.4c0,6.9-1.3,13.1-4,18.5c-2.7,5.4-6.5,9.9-11.5,13.7c-5,3.7-11,6.5-18,8.5c-7,2-14.8,3-23.5,3
			c-5.2,0-10.4-0.5-15.5-1.3c-5.2-0.9-10.1-2.3-14.8-4.2c-4.7-1.9-9.1-4.2-13.1-7c-4-2.8-7.5-6.1-10.5-9.9c-3-3.8-5.3-8.1-7-13
			c-1.7-4.9-2.5-10.2-2.5-16.1h32.5c0,4.7,0.8,8.8,2.3,12.1c1.5,3.3,3.6,6,6.3,8c2.7,2.1,6,3.5,9.8,4.5c3.8,0.9,8.1,1.4,12.7,1.4
			c4.2,0,7.8-0.4,10.9-1.3c3.1-0.9,5.6-2.1,7.7-3.7c2-1.6,3.5-3.5,4.5-5.7C1511.8,423.3,1512.3,421,1512.3,418.5z"/>
		<path class="st6" d="M1655.3,427.3h-56.8l-10.8,32.4h-34.4l58.5-157.1h30l58.8,157.1h-34.4L1655.3,427.3z M1607.3,401.1h39.3
			l-19.7-58.8L1607.3,401.1z"/>
		<path class="st6" d="M1773.5,402.2h-25.8v57.5h-32.4V302.6h58.4c9.1,0,17.2,1,24.4,3.1c7.2,2.1,13.3,5.1,18.2,9.1
			c5,4,8.8,8.9,11.4,14.8c2.7,5.9,4,12.7,4,20.5c0,5.8-0.6,10.9-1.9,15.5c-1.3,4.6-3.2,8.6-5.6,12.2c-2.4,3.6-5.4,6.7-8.8,9.3
			c-3.5,2.7-7.3,5-11.7,6.9l34,64.2v1.5H1803L1773.5,402.2z M1747.7,375.9h26.1c4.2,0,8-0.6,11.2-1.7c3.2-1.1,5.9-2.7,8-4.7
			c2.1-2,3.7-4.5,4.8-7.3c1.1-2.8,1.6-6,1.6-9.5c0-7.4-2.1-13.2-6.3-17.5c-4.2-4.2-10.7-6.4-19.4-6.4h-26V375.9z"/>
		<path class="st6" d="M1905.6,396.7l-16.8,18.1v44.9h-32.4V302.6h32.4v71.2l14.2-19.5l40-51.7h39.8l-55.8,69.8l57.4,87.3H1946
			L1905.6,396.7z"/>
	</g>
</g>
<g id="Points" class="st0">
	<circle class="st7" cx="529.4" cy="535.9" r="26.9"/>
	<circle class="st7" cx="307.9" cy="655.9" r="33.7"/>
	<circle class="st7" cx="529.4" cy="274.2" r="33.7"/>
	<circle class="st7" cx="87.5" cy="274.2" r="33.7"/>
	<circle class="st7" cx="307.9" cy="136.2" r="26.9"/>
	<circle class="st7" cx="87.5" cy="535.9" r="26.9"/>
</g>
</svg>
