# 3ds Max Wavefront OBJ Exporter v0.97b - (c)2007 guruware
# File Created: 08.01.2016 18:01:09

mtllib yang_UV.mtl

#
# object polySurface1
#

v  -8.3665 -3.7678 -0.4487
v  -8.3665 -3.7678 0.4487
v  -8.3665 3.7678 0.4487
v  -8.3665 3.7678 -0.4487
v  -7.4463 5.3617 -0.4487
v  -7.3367 4.8304 -0.6787
v  -7.3367 4.8304 0.6787
v  -7.4463 5.3617 0.4487
v  -0.5149 -8.7690 -0.6787
v  -0.5149 -8.7690 0.6787
v  -0.9202 -9.1295 0.4487
v  -0.9202 -9.1295 -0.4487
v  0.5149 8.7690 -0.6787
v  -0.0000 8.6412 -0.7779
v  0.0000 8.6412 0.7779
v  0.5149 8.7690 0.6787
v  0.9202 -9.1295 -0.4487
v  0.9202 -9.1295 0.4487
v  0.5149 -8.7690 0.6787
v  0.5149 -8.7690 -0.6787
v  -0.9202 9.1295 -0.4487
v  -0.9202 9.1295 0.4487
v  -7.4835 4.3206 -0.7779
v  -7.4835 4.3206 0.7779
v  -7.8516 -3.9385 -0.6787
v  -7.8516 -3.9385 0.6787
v  -0.5149 8.7690 -0.6787
v  -0.5149 8.7690 0.6787
v  -7.8516 3.9385 -0.6787
v  -7.8516 3.9385 0.6787
v  -7.4835 -4.3206 -0.7779
v  -7.4835 -4.3206 0.7779
v  0.9202 9.1295 -0.4487
v  0.9202 9.1295 0.4487
v  7.4463 5.3617 0.4487
v  7.4463 5.3617 -0.4487
v  7.4835 4.3206 -0.7779
v  7.3367 4.8304 -0.6787
v  7.3367 4.8304 0.6787
v  7.4835 4.3206 0.7779
v  8.3665 -3.7678 -0.4487
v  8.3665 -3.7678 0.4487
v  7.8516 -3.9385 0.6787
v  7.8516 -3.9385 -0.6787
v  0.0000 -8.6412 0.7779
v  -0.0000 -8.6412 -0.7779
v  8.3665 3.7678 -0.4487
v  7.8516 3.9385 -0.6787
v  7.8516 3.9385 0.6787
v  8.3665 3.7678 0.4487
v  7.4463 -5.3617 -0.4487
v  7.3367 -4.8304 -0.6787
v  7.3367 -4.8304 0.6787
v  7.4463 -5.3617 0.4487
v  7.4835 -4.3206 -0.7779
v  7.4835 -4.3206 0.7779
v  -4.1833 2.4152 1.8423
v  -2.7888 4.8304 1.6945
v  -4.1833 -2.4152 1.8423
v  -5.5777 0.0000 1.6945
v  -7.3367 -4.8304 0.6787
v  -2.7888 -4.8304 1.6945
v  0.0000 -4.8304 1.8423
v  0.0000 0.0000 2.4845
v  0.0000 4.8304 1.8423
v  2.7888 4.8304 1.6945
v  4.1833 2.4152 1.8423
v  5.5777 0.0000 1.6945
v  4.1833 -2.4152 1.7607
v  2.7888 -4.8304 1.6945
v  -7.4463 -5.3617 0.4487
v  -7.4463 -5.3617 -0.4487
v  -7.3367 -4.8304 -0.6787
v  -2.7888 4.8304 -1.6945
v  -4.1833 2.4152 -1.8423
v  -5.5777 0.0000 -1.6945
v  -4.1833 -2.4152 -1.8423
v  -2.7888 -4.8304 -1.6945
v  -0.0000 -4.8304 -1.8423
v  -0.0000 0.0000 -2.4845
v  -0.0000 4.8304 -1.8423
v  4.1833 2.4152 -1.8423
v  2.7888 4.8304 -1.6945
v  4.1833 -2.4152 -1.7607
v  5.5777 0.0000 -1.6945
v  2.7888 -4.8304 -1.6945
# 86 vertices

vn -1.0000 0.0000 0.0000
vn -1.0000 0.0000 0.0000
vn -1.0000 0.0000 0.0000
vn -1.0000 0.0000 0.0000
vn -0.9794 -0.2021 0.0000
vn -0.9955 0.0943 0.0000
vn -0.9955 0.0943 0.0000
vn -0.9794 -0.2021 0.0000
vn 0.4161 -0.9093 -0.0000
vn 0.4161 -0.9093 -0.0000
vn 0.6647 -0.7471 -0.0000
vn 0.6647 -0.7471 -0.0000
vn -0.4161 0.9093 0.0000
vn 0.0000 1.0000 -0.0000
vn 0.0000 1.0000 -0.0000
vn -0.4161 0.9093 0.0000
vn -0.6647 -0.7471 0.0000
vn -0.6647 -0.7471 0.0000
vn -0.4161 -0.9093 0.0000
vn -0.4161 -0.9093 0.0000
vn -0.5000 0.8660 0.0000
vn -0.5000 0.8660 0.0000
vn -0.5000 0.8660 0.0000
vn -0.5000 0.8660 0.0000
vn -0.8660 0.5000 0.0000
vn -0.8660 0.5000 0.0000
vn -0.9955 0.0943 0.0000
vn -0.9955 0.0943 0.0000
vn -0.3147 -0.9492 0.0000
vn -0.5795 -0.8150 0.0000
vn -0.5795 -0.8150 0.0000
vn -0.3147 -0.9492 0.0000
vn 0.4161 0.9093 -0.0000
vn 0.6647 0.7471 -0.0000
vn 0.6647 0.7471 -0.0000
vn 0.4161 0.9093 -0.0000
vn -0.5795 0.8150 0.0000
vn -0.3147 0.9492 0.0000
vn -0.3147 0.9492 0.0000
vn -0.5795 0.8150 0.0000
vn -0.8660 -0.5000 0.0000
vn -0.8660 -0.5000 0.0000
vn -0.5795 -0.8150 0.0000
vn -0.5795 -0.8150 0.0000
vn 0.5000 0.8660 -0.0000
vn 0.5000 0.8660 -0.0000
vn 0.5000 0.8660 -0.0000
vn 0.5000 0.8660 -0.0000
vn 0.8660 0.5000 -0.0000
vn 0.9955 0.0943 -0.0000
vn 0.9955 0.0943 -0.0000
vn 0.8660 0.5000 -0.0000
vn 0.3147 -0.9492 -0.0000
vn 0.3147 -0.9492 -0.0000
vn 0.5795 -0.8150 -0.0000
vn 0.5795 -0.8150 -0.0000
vn -0.4161 -0.9093 0.0000
vn -0.4161 -0.9093 0.0000
vn 0.0000 -1.0000 -0.0000
vn 0.0000 -1.0000 -0.0000
vn -0.6647 0.7471 0.0000
vn -0.4161 0.9093 0.0000
vn -0.4161 0.9093 0.0000
vn -0.6647 0.7471 0.0000
vn 0.3147 0.9492 -0.0000
vn 0.5795 0.8150 -0.0000
vn 0.5795 0.8150 -0.0000
vn 0.3147 0.9492 -0.0000
vn 0.9794 0.2021 -0.0000
vn 0.9955 -0.0943 -0.0000
vn 0.9955 -0.0943 -0.0000
vn 0.9794 0.2021 -0.0000
vn 0.9955 -0.0943 -0.0000
vn 0.8660 -0.5000 -0.0000
vn 0.8660 -0.5000 -0.0000
vn 0.9955 -0.0943 -0.0000
vn 0.5795 -0.8150 -0.0000
vn 0.5795 -0.8150 -0.0000
vn 0.8660 -0.5000 -0.0000
vn 0.8660 -0.5000 -0.0000
vn -0.2106 0.2439 0.9467
vn -0.1937 0.2647 0.9447
vn -0.2373 0.2100 0.9485
vn -0.2410 0.2052 0.9486
vn -0.4530 0.0000 0.8915
vn -0.4530 0.0000 0.8915
vn -0.4530 0.0000 0.8915
vn -0.4530 0.0000 0.8915
vn -0.3165 -0.0604 0.9467
vn -0.3261 -0.0354 0.9447
vn -0.3005 -0.1005 0.9485
vn -0.2982 -0.1061 0.9486
vn -0.2106 -0.2439 0.9467
vn -0.2410 -0.2052 0.9486
vn -0.2373 -0.2100 0.9485
vn -0.1937 -0.2647 0.9447
vn -0.0632 -0.3105 0.9485
vn -0.0572 -0.3113 0.9486
vn -0.1059 -0.3043 0.9467
vn -0.1324 -0.3001 0.9447
vn -0.2265 0.3923 0.8915
vn -0.2265 0.3923 0.8915
vn -0.2265 0.3923 0.8915
vn -0.2265 0.3923 0.8915
vn -0.1546 0.0000 0.9880
vn -0.1720 0.0000 0.9851
vn -0.1546 0.0000 0.9880
vn -0.1197 0.0000 0.9928
vn -0.0773 0.1339 0.9880
vn -0.0860 0.1490 0.9851
vn -0.0773 0.1339 0.9880
vn -0.0598 0.1036 0.9928
vn -0.0773 -0.1339 0.9880
vn -0.0860 -0.1490 0.9851
vn -0.0773 -0.1339 0.9880
vn -0.0598 -0.1036 0.9928
vn -0.3005 0.1005 0.9485
vn -0.3261 0.0354 0.9447
vn -0.3165 0.0604 0.9467
vn -0.2982 0.1061 0.9486
vn -0.2265 -0.3923 0.8915
vn -0.2265 -0.3923 0.8915
vn -0.2265 -0.3923 0.8915
vn -0.0632 0.3105 0.9485
vn -0.1324 0.3001 0.9447
vn -0.1059 0.3043 0.9467
vn -0.0572 0.3113 0.9486
vn 0.2106 0.2439 0.9467
vn 0.2410 0.2052 0.9486
vn 0.2373 0.2100 0.9485
vn 0.1937 0.2647 0.9447
vn 0.4530 0.0000 0.8915
vn 0.4530 0.0000 0.8915
vn 0.4530 0.0000 0.8915
vn 0.4530 0.0000 0.8915
vn 0.2964 -0.0566 0.9534
vn 0.2684 -0.1252 0.9551
vn 0.2720 -0.1168 0.9552
vn 0.3109 -0.0191 0.9503
vn 0.1972 -0.2284 0.9534
vn 0.1720 -0.2597 0.9503
vn 0.2371 -0.1772 0.9552
vn 0.2427 -0.1699 0.9551
vn 0.0632 -0.3105 0.9485
vn 0.1324 -0.3001 0.9447
vn 0.1059 -0.3043 0.9467
vn 0.0572 -0.3113 0.9486
vn 0.2265 0.3923 0.8915
vn 0.2265 0.3923 0.8915
vn 0.2265 0.3923 0.8915
vn 0.2265 0.3923 0.8915
vn 0.1508 -0.0190 0.9884
vn 0.0869 -0.0191 0.9960
vn 0.1510 -0.0190 0.9884
vn 0.1825 -0.0189 0.9830
vn 0.0773 0.1339 0.9880
vn 0.0598 0.1036 0.9928
vn 0.0773 0.1339 0.9880
vn 0.0860 0.1490 0.9851
vn 0.0919 -0.1213 0.9884
vn 0.0600 -0.0657 0.9960
vn 0.0919 -0.1211 0.9884
vn 0.1076 -0.1486 0.9830
vn 0.3005 0.1005 0.9485
vn 0.2982 0.1061 0.9486
vn 0.3165 0.0604 0.9467
vn 0.3261 0.0354 0.9447
vn 0.2265 -0.3923 0.8915
vn 0.2265 -0.3923 0.8915
vn 0.2265 -0.3923 0.8915
vn 0.0632 0.3105 0.9485
vn 0.0572 0.3113 0.9486
vn 0.1059 0.3043 0.9467
vn 0.1324 0.3001 0.9447
vn -0.5000 -0.8660 0.0000
vn -0.5000 -0.8660 0.0000
vn -0.5000 -0.8660 0.0000
vn -0.5000 -0.8660 0.0000
vn 0.4161 0.9093 -0.0000
vn 0.4161 0.9093 -0.0000
vn 0.0000 1.0000 -0.0000
vn 0.0000 1.0000 -0.0000
vn 1.0000 0.0000 -0.0000
vn 1.0000 0.0000 -0.0000
vn 1.0000 0.0000 -0.0000
vn 1.0000 0.0000 -0.0000
vn 0.5000 -0.8660 -0.0000
vn 0.5000 -0.8660 -0.0000
vn 0.5000 -0.8660 -0.0000
vn 0.5000 -0.8660 -0.0000
vn 0.9794 -0.2021 -0.0000
vn 0.9794 -0.2021 -0.0000
vn 0.9955 0.0943 -0.0000
vn 0.9955 0.0943 -0.0000
vn 0.4161 -0.9093 -0.0000
vn 0.0000 -1.0000 -0.0000
vn 0.0000 -1.0000 -0.0000
vn 0.4161 -0.9093 -0.0000
vn -0.8660 0.5000 0.0000
vn -0.5795 0.8150 0.0000
vn -0.5795 0.8150 0.0000
vn -0.8660 0.5000 0.0000
vn -0.9955 -0.0943 0.0000
vn -0.9794 0.2021 0.0000
vn -0.9794 0.2021 0.0000
vn -0.9955 -0.0943 0.0000
vn -0.8660 -0.5000 0.0000
vn -0.9955 -0.0943 0.0000
vn -0.9955 -0.0943 0.0000
vn -0.8660 -0.5000 0.0000
vn 0.8660 0.5000 -0.0000
vn 0.8660 0.5000 -0.0000
vn 0.5795 0.8150 -0.0000
vn 0.5795 0.8150 -0.0000
vn -0.2265 0.3923 0.8915
vn -0.2265 0.3923 0.8915
vn -0.2265 0.3923 0.8915
vn -0.4530 0.0000 0.8915
vn -0.4530 0.0000 0.8915
vn -0.4530 0.0000 0.8915
vn -0.2265 -0.3923 0.8915
vn -0.2265 -0.3923 0.8915
vn -0.2265 -0.3923 0.8915
vn -0.2265 -0.3923 0.8915
vn 0.2265 -0.3923 0.8915
vn 0.2265 -0.3923 0.8915
vn 0.2265 -0.3923 0.8915
vn 0.2265 -0.3923 0.8915
vn 0.4530 0.0000 0.8915
vn 0.4530 0.0000 0.8915
vn 0.4530 0.0000 0.8915
vn 0.2265 0.3923 0.8915
vn 0.2265 0.3923 0.8915
vn 0.2265 0.3923 0.8915
vn -0.2106 0.2439 -0.9467
vn -0.2410 0.2052 -0.9486
vn -0.2373 0.2100 -0.9485
vn -0.1937 0.2647 -0.9447
vn -0.4530 0.0000 -0.8915
vn -0.4530 0.0000 -0.8915
vn -0.4530 0.0000 -0.8915
vn -0.4530 0.0000 -0.8915
vn -0.3165 -0.0604 -0.9467
vn -0.2982 -0.1061 -0.9486
vn -0.3005 -0.1005 -0.9485
vn -0.3261 -0.0354 -0.9447
vn -0.2106 -0.2439 -0.9467
vn -0.1937 -0.2647 -0.9447
vn -0.2373 -0.2100 -0.9485
vn -0.2410 -0.2052 -0.9486
vn -0.0632 -0.3105 -0.9485
vn -0.1324 -0.3001 -0.9447
vn -0.1059 -0.3043 -0.9467
vn -0.0572 -0.3113 -0.9486
vn -0.2265 0.3923 -0.8915
vn -0.2265 0.3923 -0.8915
vn -0.2265 0.3923 -0.8915
vn -0.2265 0.3923 -0.8915
vn -0.1546 0.0000 -0.9880
vn -0.1197 0.0000 -0.9928
vn -0.1546 0.0000 -0.9880
vn -0.1720 0.0000 -0.9851
vn -0.0773 0.1339 -0.9880
vn -0.0598 0.1036 -0.9928
vn -0.0773 0.1339 -0.9880
vn -0.0860 0.1490 -0.9851
vn -0.0773 -0.1339 -0.9880
vn -0.0598 -0.1036 -0.9928
vn -0.0773 -0.1339 -0.9880
vn -0.0860 -0.1490 -0.9851
vn -0.3005 0.1005 -0.9485
vn -0.2982 0.1061 -0.9486
vn -0.3165 0.0604 -0.9467
vn -0.3261 0.0354 -0.9447
vn -0.2265 -0.3923 -0.8915
vn -0.2265 -0.3923 -0.8915
vn -0.2265 -0.3923 -0.8915
vn -0.0632 0.3105 -0.9485
vn -0.0572 0.3113 -0.9486
vn -0.1059 0.3043 -0.9467
vn -0.1324 0.3001 -0.9447
vn 0.2106 0.2439 -0.9467
vn 0.1937 0.2647 -0.9447
vn 0.2373 0.2100 -0.9485
vn 0.2410 0.2052 -0.9486
vn 0.4530 0.0000 -0.8915
vn 0.4530 0.0000 -0.8915
vn 0.4530 0.0000 -0.8915
vn 0.4530 0.0000 -0.8915
vn 0.2964 -0.0566 -0.9534
vn 0.3109 -0.0191 -0.9503
vn 0.2720 -0.1168 -0.9552
vn 0.2684 -0.1252 -0.9551
vn 0.1972 -0.2284 -0.9534
vn 0.2427 -0.1699 -0.9551
vn 0.2371 -0.1772 -0.9552
vn 0.1720 -0.2597 -0.9503
vn 0.0632 -0.3105 -0.9485
vn 0.0572 -0.3113 -0.9486
vn 0.1059 -0.3043 -0.9467
vn 0.1324 -0.3001 -0.9447
vn 0.2265 0.3923 -0.8915
vn 0.2265 0.3923 -0.8915
vn 0.2265 0.3923 -0.8915
vn 0.2265 0.3923 -0.8915
vn 0.1508 -0.0190 -0.9884
vn 0.1825 -0.0189 -0.9830
vn 0.1510 -0.0190 -0.9884
vn 0.0869 -0.0191 -0.9960
vn 0.0773 0.1339 -0.9880
vn 0.0860 0.1490 -0.9851
vn 0.0773 0.1339 -0.9880
vn 0.0598 0.1036 -0.9928
vn 0.0919 -0.1213 -0.9884
vn 0.1076 -0.1486 -0.9830
vn 0.0919 -0.1211 -0.9884
vn 0.0600 -0.0657 -0.9960
vn 0.3005 0.1005 -0.9485
vn 0.3261 0.0354 -0.9447
vn 0.3165 0.0604 -0.9467
vn 0.2982 0.1061 -0.9486
vn 0.2265 -0.3923 -0.8915
vn 0.2265 -0.3923 -0.8915
vn 0.2265 -0.3923 -0.8915
vn 0.0632 0.3105 -0.9485
vn 0.1324 0.3001 -0.9447
vn 0.1059 0.3043 -0.9467
vn 0.0572 0.3113 -0.9486
vn -0.2265 0.3923 -0.8915
vn -0.2265 0.3923 -0.8915
vn -0.2265 0.3923 -0.8915
vn -0.4530 0.0000 -0.8915
vn -0.4530 0.0000 -0.8915
vn -0.4530 0.0000 -0.8915
vn -0.2265 -0.3923 -0.8915
vn -0.2265 -0.3923 -0.8915
vn -0.2265 -0.3923 -0.8915
vn -0.2265 -0.3923 -0.8915
vn 0.2265 -0.3923 -0.8915
vn 0.2265 -0.3923 -0.8915
vn 0.2265 -0.3923 -0.8915
vn 0.2265 -0.3923 -0.8915
vn 0.4530 0.0000 -0.8915
vn 0.4530 0.0000 -0.8915
vn 0.4530 0.0000 -0.8915
vn 0.2265 0.3923 -0.8915
vn 0.2265 0.3923 -0.8915
vn 0.2265 0.3923 -0.8915
# 348 vertex normals

vt 0.0719 0.3258 0.0000
vt 0.1155 0.3317 0.0000
vt 0.1155 0.6678 0.0000
vt 0.0719 0.6738 0.0000
vt 0.1334 0.7786 0.0000
vt 0.1038 0.7618 0.0000
vt 0.1602 0.7197 0.0000
vt 0.1605 0.7438 0.0000
vt 0.4638 0.0263 0.0000
vt 0.4709 0.0962 0.0000
vt 0.4502 0.0845 0.0000
vt 0.4336 0.0437 0.0000
vt 0.5289 0.9733 0.0000
vt 0.4963 0.9791 0.0000
vt 0.4963 0.8987 0.0000
vt 0.5218 0.9034 0.0000
vt 0.5591 0.0438 0.0000
vt 0.5424 0.0845 0.0000
vt 0.5218 0.0962 0.0000
vt 0.5289 0.0264 0.0000
vt 0.4335 0.9559 0.0000
vt 0.4502 0.9151 0.0000
vt 0.0828 0.7377 0.0000
vt 0.1522 0.6964 0.0000
vt 0.0718 0.2919 0.0000
vt 0.1361 0.3204 0.0000
vt 0.4637 0.9733 0.0000
vt 0.4708 0.9034 0.0000
vt 0.0718 0.7076 0.0000
vt 0.1361 0.6792 0.0000
vt 0.0828 0.2619 0.0000
vt 0.1522 0.3031 0.0000
vt 0.5591 0.9559 0.0000
vt 0.5424 0.9151 0.0000
vt 0.8320 0.7438 0.0000
vt 0.8592 0.7785 0.0000
vt 0.9097 0.7376 0.0000
vt 0.8887 0.7618 0.0000
vt 0.8323 0.7197 0.0000
vt 0.8404 0.6964 0.0000
vt 0.9205 0.3257 0.0000
vt 0.8769 0.3317 0.0000
vt 0.8563 0.3203 0.0000
vt 0.9206 0.2919 0.0000
vt 0.4963 0.1009 0.0000
vt 0.4963 0.0205 0.0000
vt 0.9206 0.6737 0.0000
vt 0.9207 0.7075 0.0000
vt 0.8564 0.6792 0.0000
vt 0.8769 0.6678 0.0000
vt 0.8591 0.2211 0.0000
vt 0.8886 0.2378 0.0000
vt 0.8322 0.2799 0.0000
vt 0.8320 0.2559 0.0000
vt 0.9096 0.2619 0.0000
vt 0.8402 0.3031 0.0000
vt 0.3097 0.6087 0.0000
vt 0.3715 0.7171 0.0000
vt 0.3098 0.3908 0.0000
vt 0.2482 0.4998 0.0000
vt 0.1603 0.2798 0.0000
vt 0.3716 0.2824 0.0000
vt 0.4964 0.2814 0.0000
vt 0.4963 0.4998 0.0000
vt 0.4963 0.7181 0.0000
vt 0.6210 0.7171 0.0000
vt 0.6828 0.6087 0.0000
vt 0.7444 0.4998 0.0000
vt 0.6836 0.3906 0.0000
vt 0.6211 0.2826 0.0000
vt 0.1605 0.2558 0.0000
vt 0.1334 0.2210 0.0000
vt 0.1039 0.2377 0.0000
# 73 texture coords

g polySurface1
usemtl 07___Default
s 2
f 1/1/1 2/2/2 3/3/3 4/4/4 
s 4
f 5/5/5 6/6/6 7/7/7 8/8/8 
s 1
f 9/9/9 10/10/10 11/11/11 12/12/12 
f 13/13/13 14/14/14 15/15/15 16/16/16 
f 17/17/17 18/18/18 19/19/19 20/20/20 
s 8
f 21/21/21 5/5/22 8/8/23 22/22/24 
s 4
f 23/23/25 24/24/26 7/7/27 6/6/28 
s 8
f 1/1/29 25/25/30 26/26/31 2/2/32 
s 1
f 27/27/33 21/21/34 22/22/35 28/28/36 
s 4
f 29/29/37 4/4/38 3/3/39 30/30/40 
s 8
f 31/31/41 32/32/42 26/26/43 25/25/44 
s 4
f 33/33/45 34/34/46 35/35/47 36/36/48 
s 16
f 37/37/49 38/38/50 39/39/51 40/40/52 
s 4
f 41/41/53 42/42/54 43/43/55 44/44/56 
s 1
f 20/20/57 19/19/58 45/45/59 46/46/60 
f 33/33/61 13/13/62 16/16/63 34/34/64 
s 16
f 47/47/65 48/48/66 49/49/67 50/50/68 
s 4
f 51/51/69 52/52/70 53/53/71 54/54/72 
f 52/52/73 55/55/74 56/56/75 53/53/76 
f 44/44/77 43/43/78 56/56/79 55/55/80 
s 1
f 7/7/81 24/24/82 57/57/83 58/58/84 
f 3/3/85 2/2/86 26/26/87 30/30/88 
s 2
f 26/26/89 32/32/90 59/59/91 60/60/92 
s 1
f 61/61/93 62/62/94 59/59/95 32/32/96 
s 2
f 63/63/97 62/62/98 10/10/99 45/45/100 
f 22/22/101 8/8/102 7/7/103 28/28/104 
s 4
f 59/59/105 64/64/106 57/57/107 60/60/108 
s 2
f 57/57/109 64/64/110 65/65/111 58/58/112 
s 8
f 63/63/113 64/64/114 59/59/115 62/62/116 
s 16
f 57/57/117 24/24/118 30/30/119 60/60/120 
s 4
f 62/62/121 61/61/122 10/10/123 
f 65/65/124 15/15/125 28/28/126 58/58/127 
s 1
f 39/39/128 66/66/129 67/67/130 40/40/131 
f 50/50/132 49/49/133 43/43/134 42/42/135 
s 2
f 43/43/136 68/68/137 69/69/138 56/56/139 
s 1
f 53/53/140 56/56/141 69/69/142 70/70/143 
s 4
f 63/63/144 45/45/145 19/19/146 70/70/147 
s 2
f 34/34/148 16/16/149 39/39/150 35/35/151 
s 16
f 69/69/152 68/68/153 67/67/154 64/64/155 
s 32
f 67/67/156 66/66/157 65/65/158 64/64/159 
s 64
f 63/63/160 70/70/161 69/69/162 64/64/163 
s 4
f 67/67/164 68/68/165 49/49/166 40/40/167 
s 2
f 70/70/168 19/19/169 53/53/170 
s 8
f 65/65/171 66/66/172 16/16/173 15/15/174 
s 2
f 12/12/175 11/11/176 71/71/177 72/72/178 
s 1
f 27/27/179 28/28/180 15/15/181 14/14/182 
s 2
f 47/47/183 50/50/184 42/42/185 41/41/186 
s 8
f 51/51/187 54/54/188 18/18/189 17/17/190 
s 16
f 36/36/191 35/35/192 39/39/193 38/38/194 
s 1
f 9/9/195 46/46/196 45/45/197 10/10/198 
s 4
f 23/23/199 29/29/200 30/30/201 24/24/202 
s 8
f 73/73/203 72/72/204 71/71/205 61/61/206 
f 31/31/207 73/73/208 61/61/209 32/32/210 
s 16
f 37/37/211 40/40/212 49/49/213 48/48/214 
f 7/7/215 58/58/216 28/28/217 
s 1
f 26/26/218 60/60/219 30/30/220 
s 4
f 71/71/221 11/11/222 10/10/223 61/61/224 
s 2
f 18/18/225 54/54/226 53/53/227 19/19/228 
s 1
f 49/49/229 68/68/230 43/43/231 
s 2
f 16/16/232 66/66/233 39/39/234 
s 1
f 6/7/235 74/58/236 75/57/237 23/24/238 
f 4/3/239 29/30/240 25/26/241 1/2/242 
s 2
f 25/26/243 76/60/244 77/59/245 31/32/246 
s 1
f 73/61/247 31/32/248 77/59/249 78/62/250 
s 2
f 79/63/251 46/45/252 9/10/253 78/62/254 
f 21/22/255 27/28/256 6/7/257 5/8/258 
s 4
f 77/59/259 76/60/260 75/57/261 80/64/262 
s 2
f 75/57/263 74/58/264 81/65/265 80/64/266 
s 8
f 79/63/267 78/62/268 77/59/269 80/64/270 
s 16
f 75/57/271 76/60/272 29/30/273 23/24/274 
s 4
f 78/62/275 9/10/276 73/61/277 
f 81/65/278 74/58/279 27/28/280 14/15/281 
s 1
f 38/39/282 37/40/283 82/67/284 83/66/285 
f 47/50/286 41/42/287 44/43/288 48/49/289 
s 2
f 44/43/290 55/56/291 84/69/292 85/68/293 
s 1
f 52/53/294 86/70/295 84/69/296 55/56/297 
s 4
f 79/63/298 86/70/299 20/19/300 46/45/301 
s 2
f 33/34/302 36/35/303 38/39/304 13/16/305 
s 16
f 84/69/306 80/64/307 82/67/308 85/68/309 
s 32
f 82/67/310 80/64/311 81/65/312 83/66/313 
s 64
f 79/63/314 80/64/315 84/69/316 86/70/317 
s 4
f 82/67/318 37/40/319 48/49/320 85/68/321 
s 2
f 86/70/322 52/53/323 20/19/324 
s 8
f 81/65/325 14/15/326 13/16/327 83/66/328 
s 16
f 6/7/329 27/28/330 74/58/331 
s 1
f 25/26/332 29/30/333 76/60/334 
s 4
f 72/71/335 73/61/336 9/10/337 12/11/338 
s 2
f 17/18/339 20/19/340 52/53/341 51/54/342 
s 1
f 48/49/343 44/43/344 85/68/345 
s 2
f 13/16/346 38/39/347 83/66/348 
# 78 polygons - 12 triangles

