o Icosahedron 2
v -40.31306167729517 65.22790398443443 0
v 40.31306167729517 65.22790398443443 0
v -40.31306167729517 -65.22790398443443 0
v 40.31306167729517 -65.22790398443443 0
v 0 -40.31306167729517 65.22790398443443
v 0 40.31306167729517 65.22790398443443
v 0 -40.31306167729517 -65.22790398443443
v 0 40.31306167729517 -65.22790398443443
v 65.22790398443443 0 -40.31306167729517
v 65.22790398443443 0 40.31306167729517
v -65.22790398443443 0 -40.31306167729517
v -65.22790398443443 0 40.31306167729517
vt 0.5881040955873917 0.5
vt 0.75 0.6762081911747834
vt 0.5 0.8237918088252166
vt 0.75 0.6762081911747834
vt 1 0.8237918088252166
vt 0.5 0.8237918088252166
vt 0 0.8237918088252166
vt 0.25 0.6762081911747834
vt 0.5 0.8237918088252166
vt 0.25 0.6762081911747834
vt 0.4118959044126083 0.5
vt 0.5 0.8237918088252166
vt 0.4118959044126083 0.5
vt 0.5881040955873917 0.5
vt 0.5 0.8237918088252166
vt 0.75 0.6762081911747834
vt 0.9118959044126083 0.5
vt 1 0.8237918088252166
vt 0.5881040955873917 0.5
vt 0.75 0.32379180882521663
vt 0.75 0.6762081911747834
vt 0.4118959044126083 0.5
vt 0.5 0.17620819117478337
vt 0.5881040955873917 0.5
vt 0.25 0.6762081911747834
vt 0.25 0.32379180882521663
vt 0.4118959044126083 0.5
vt 0 0.8237918088252166
vt 0.08810409558739168 0.5
vt 0.25 0.6762081911747834
vt 0.9118959044126083 0.5
vt 0.75 0.32379180882521663
vt 1 0.17620819117478337
vt 0.75 0.32379180882521663
vt 0.5 0.17620819117478337
vt 1 0.17620819117478337
vt 0.5 0.17620819117478337
vt 0.25 0.32379180882521663
vt 0 0.17620819117478337
vt 0.25 0.32379180882521663
vt 0.08810409558739168 0.5
vt 0 0.17620819117478337
vt 1.0881040955873917 0.5
vt 0.9118959044126083 0.5
vt 1 0.17620819117478337
vt 0.9118959044126083 0.5
vt 0.75 0.6762081911747834
vt 0.75 0.32379180882521663
vt 0.75 0.32379180882521663
vt 0.5881040955873917 0.5
vt 0.5 0.17620819117478337
vt 0.5 0.17620819117478337
vt 0.4118959044126083 0.5
vt 0.25 0.32379180882521663
vt 0.25 0.32379180882521663
vt 0.25 0.6762081911747834
vt 0.08810409558739168 0.5
vt 1.0881040955873917 0.5
vt 1 0.8237918088252166
vt 0.9118959044126083 0.5
vn -0.85065080835204 0 0.5257311121191336
vn 0 0.5257311121191336 0.85065080835204
vn -0.5257311121191336 0.85065080835204 0
vn 0 0.5257311121191336 0.85065080835204
vn 0.5257311121191336 0.85065080835204 0
vn -0.5257311121191336 0.85065080835204 0
vn 0.5257311121191336 0.85065080835204 0
vn 0 0.5257311121191336 -0.85065080835204
vn -0.5257311121191336 0.85065080835204 0
vn 0 0.5257311121191336 -0.85065080835204
vn -0.85065080835204 0 -0.5257311121191336
vn -0.5257311121191336 0.85065080835204 0
vn -0.85065080835204 0 -0.5257311121191336
vn -0.85065080835204 0 0.5257311121191336
vn -0.5257311121191336 0.85065080835204 0
vn 0 0.5257311121191336 0.85065080835204
vn 0.85065080835204 0 0.5257311121191336
vn 0.5257311121191336 0.85065080835204 0
vn -0.85065080835204 0 0.5257311121191336
vn 0 -0.5257311121191336 0.85065080835204
vn 0 0.5257311121191336 0.85065080835204
vn -0.85065080835204 0 -0.5257311121191336
vn -0.5257311121191336 -0.85065080835204 0
vn -0.85065080835204 0 0.5257311121191336
vn 0 0.5257311121191336 -0.85065080835204
vn 0 -0.5257311121191336 -0.85065080835204
vn -0.85065080835204 0 -0.5257311121191336
vn 0.5257311121191336 0.85065080835204 0
vn 0.85065080835204 0 -0.5257311121191336
vn 0 0.5257311121191336 -0.85065080835204
vn 0.85065080835204 0 0.5257311121191336
vn 0 -0.5257311121191336 0.85065080835204
vn 0.5257311121191336 -0.85065080835204 0
vn 0 -0.5257311121191336 0.85065080835204
vn -0.5257311121191336 -0.85065080835204 0
vn 0.5257311121191336 -0.85065080835204 0
vn -0.5257311121191336 -0.85065080835204 0
vn 0 -0.5257311121191336 -0.85065080835204
vn 0.5257311121191336 -0.85065080835204 0
vn 0 -0.5257311121191336 -0.85065080835204
vn 0.85065080835204 0 -0.5257311121191336
vn 0.5257311121191336 -0.85065080835204 0
vn 0.85065080835204 0 -0.5257311121191336
vn 0.85065080835204 0 0.5257311121191336
vn 0.5257311121191336 -0.85065080835204 0
vn 0.85065080835204 0 0.5257311121191336
vn 0 0.5257311121191336 0.85065080835204
vn 0 -0.5257311121191336 0.85065080835204
vn 0 -0.5257311121191336 0.85065080835204
vn -0.85065080835204 0 0.5257311121191336
vn -0.5257311121191336 -0.85065080835204 0
vn -0.5257311121191336 -0.85065080835204 0
vn -0.85065080835204 0 -0.5257311121191336
vn 0 -0.5257311121191336 -0.85065080835204
vn 0 -0.5257311121191336 -0.85065080835204
vn 0 0.5257311121191336 -0.85065080835204
vn 0.85065080835204 0 -0.5257311121191336
vn 0.85065080835204 0 -0.5257311121191336
vn 0.5257311121191336 0.85065080835204 0
vn 0.85065080835204 0 0.5257311121191336
f 12/1/1 6/2/2 1/3/3
f 6/4/4 2/5/5 1/6/6
f 2/7/7 8/8/8 1/9/9
f 8/10/10 11/11/11 1/12/12
f 11/13/13 12/14/14 1/15/15
f 6/16/16 10/17/17 2/18/18
f 12/19/19 5/20/20 6/21/21
f 11/22/22 3/23/23 12/24/24
f 8/25/25 7/26/26 11/27/27
f 2/28/28 9/29/29 8/30/30
f 10/31/31 5/32/32 4/33/33
f 5/34/34 3/35/35 4/36/36
f 3/37/37 7/38/38 4/39/39
f 7/40/40 9/41/41 4/42/42
f 9/43/43 10/44/44 4/45/45
f 10/46/46 6/47/47 5/48/48
f 5/49/49 12/50/50 3/51/51
f 3/52/52 11/53/53 7/54/54
f 7/55/55 8/56/56 9/57/57
f 9/58/58 2/59/59 10/60/60
